<?xml version="1.0" encoding="UTF-8" standalone="no"?>
<!-- Created with Inkscape (http://www.inkscape.org/) -->

<svg
   width="1024px"
   height="1024px"
   viewBox="0 0 1024 1024"
   version="1.1"
   id="SVGRoot"
   sodipodi:docname="singledeck.svg"
   inkscape:version="1.1 (c68e22c387, 2021-05-23)"
   xmlns:inkscape="http://www.inkscape.org/namespaces/inkscape"
   xmlns:sodipodi="http://sodipodi.sourceforge.net/DTD/sodipodi-0.dtd"
   xmlns="http://www.w3.org/2000/svg"
   xmlns:svg="http://www.w3.org/2000/svg">
  <sodipodi:namedview
     id="namedview320"
     pagecolor="#ffffff"
     bordercolor="#666666"
     borderopacity="1.0"
     inkscape:pageshadow="2"
     inkscape:pageopacity="0.0"
     inkscape:pagecheckerboard="true"
     inkscape:document-units="px"
     showgrid="false"
     inkscape:zoom="0.67081229"
     inkscape:cx="351.06691"
     inkscape:cy="560.51448"
     inkscape:window-width="1800"
     inkscape:window-height="1106"
     inkscape:window-x="-11"
     inkscape:window-y="-11"
     inkscape:window-maximized="1"
     inkscape:current-layer="layer2" />
  <defs
     id="defs315" />
  <g
     inkscape:label="Layer 1"
     inkscape:groupmode="layer"
     id="layer1" />
  <g
     inkscape:groupmode="layer"
     id="layer2"
     inkscape:label="Layer 2">
    <path
       id="rect371"
       style="fill:#000000;fill-rule:evenodd;stroke-width:0.909215"
       d="M 339.5293 297.80664 C 314.95143 297.80664 295.16406 317.59205 295.16406 342.16992 L 295.16406 642.86133 C 295.16406 667.4392 314.95143 687.22656 339.5293 687.22656 L 702.49219 687.22656 C 727.07006 687.22656 746.85547 667.4392 746.85547 642.86133 L 746.85547 342.16992 C 746.85547 317.59205 727.07006 297.80664 702.49219 297.80664 L 339.5293 297.80664 z M 421.78516 390.07812 L 620.23438 390.07812 C 652.39273 390.07812 678.28125 415.96664 678.28125 448.125 L 678.28125 465.19922 C 678.28125 497.35758 652.39273 523.24609 620.23438 523.24609 L 421.78516 523.24609 C 389.6268 523.24609 363.73828 497.35758 363.73828 465.19922 L 363.73828 448.125 C 363.73828 415.96664 389.6268 390.07815 421.78516 390.07812 z M 657.41211 594.80078 A 26.833139 29.8146 0 0 1 667.65039 597.06445 A 26.833139 29.8146 0 0 1 667.70703 597.0918 A 26.833139 29.8146 0 0 1 676.35742 603.51367 A 26.833139 29.8146 0 0 1 676.40234 603.56445 A 26.833139 29.8146 0 0 1 682.18555 613.17773 A 26.833139 29.8146 0 0 1 682.20703 613.23438 A 26.833139 29.8146 0 0 1 684.24414 624.61523 A 26.833139 29.8146 0 0 1 682.26172 635.68555 A 26.833139 29.8146 0 0 1 682.08008 636.22461 A 26.833139 29.8146 0 0 1 676.57422 645.38086 A 26.833139 29.8146 0 0 1 676.09961 645.9082 A 26.833139 29.8146 0 0 1 667.86133 652.02539 A 26.833139 29.8146 0 0 1 667.37109 652.22852 A 26.833139 29.8146 0 0 1 657.41211 654.42969 A 26.833139 29.8146 0 0 1 647.45508 652.22852 A 26.833139 29.8146 0 0 1 646.95898 652.02344 A 26.833139 29.8146 0 0 1 638.72852 645.91211 A 26.833139 29.8146 0 0 1 638.24414 645.375 A 26.833139 29.8146 0 0 1 632.74609 636.23242 A 26.833139 29.8146 0 0 1 632.55859 635.67383 A 26.833139 29.8146 0 0 1 630.57812 624.61523 A 26.833139 29.8146 0 0 1 632.55664 613.56055 A 26.833139 29.8146 0 0 1 632.74805 612.99609 A 26.833139 29.8146 0 0 1 638.24023 603.86133 A 26.833139 29.8146 0 0 1 638.73242 603.31445 A 26.833139 29.8146 0 0 1 646.95312 597.21094 A 26.833139 29.8146 0 0 1 647.46484 597 A 26.833139 29.8146 0 0 1 657.41211 594.80078 z M 387.58984 597.7832 A 26.833139 29.8146 0 0 1 414.42383 627.59766 A 26.833139 29.8146 0 0 1 387.58984 657.41211 A 26.833139 29.8146 0 0 1 360.75586 627.59766 A 26.833139 29.8146 0 0 1 387.58984 597.7832 z " />
    <rect
       style="fill:#000000"
       id="rect725"
       width="59.6292"
       height="62.610661"
       x="357.77521"
       y="682.75433" />
    <rect
       style="fill:#000000"
       id="rect749"
       width="56.647739"
       height="62.610661"
       x="627.59729"
       y="681.26361" />
    <rect
       style="fill:#000000"
       id="rect773"
       width="52.175549"
       height="76.027229"
       x="262.36847"
       y="398.0249" />
    <rect
       style="fill:#000000"
       id="rect775"
       width="52.175549"
       height="76.027229"
       x="725.98541"
       y="399.51562" />
  </g>
</svg>
